<?xml version="1.0" encoding="utf-8"?>
<svg xmlns="http://www.w3.org/2000/svg" style="margin: auto; background: rgb(241, 242, 243) none repeat scroll 0% 0%; display: block; shape-rendering: auto;" width="282" height="144" preserveAspectRatio="xMidYMid">
<style type="text/css">
  text {
    text-anchor: middle; font-size: 45px; opacity: 0;
  }
</style>
<g transform="translate(141,72)">
  <g transform="translate(0,0)"><g class="path" style="transform-origin: -118.5px -3.99167px 0px; animation: 1s linear -0.621177s infinite normal forwards running fade-98d7e520-4929-4ad9-8e8b-27939abc6424; opacity: 1;"><path d="M7.96-26.50L0-25.88L0.49-31.05L21.87-31.05L21.38-25.88L13.54-26.55L13.37-11.70L13.90 0L7.60 0L8.14-10.93L7.96-26.50" fill="#001f2d" stroke="none" stroke-width="none" transform="translate(-129.4416732788086,11.548645558076744)" style="fill: rgb(0, 143, 212);"></path></g><g class="path" style="transform-origin: -97.1333px 0.0250015px 0px; animation: 1s linear -0.582353s infinite normal forwards running fade-98d7e520-4929-4ad9-8e8b-27939abc6424; opacity: 1;"><path d="M28.98 0L28.98 0Q26.32 0 24.64-1.69L24.64-1.69L24.64-1.69Q22.95-3.38 22.95-6.23L22.95-6.23L22.95-6.23Q22.95-9.09 25.56-11.18L25.56-11.18L25.56-11.18Q28.17-13.28 31.90-13.28L31.90-13.28L34.96-13.28L34.96-14.04L34.96-14.04Q34.96-16.25 34.06-17.05L34.06-17.05L34.06-17.05Q33.16-17.86 30.69-17.86L30.69-17.86L30.69-17.86Q29.65-17.86 28.24-17.44L28.24-17.44L28.24-17.44Q26.82-17.01 25.06-16.11L25.06-16.11L23.76-19.66L23.76-19.66Q25.69-21.02 28.46-22.09L28.46-22.09L28.46-22.09Q31.23-23.18 33.03-23.18L33.03-23.18L33.03-23.18Q40.09-23.18 40.09-16.34L40.09-16.34L40.09-7.51L40.09-7.51Q40.09-5.00 41.67-1.89L41.67-1.89L36.90 0.14L36.90 0.14Q35.77-2.02 35.23-3.73L35.23-3.73L35.23-3.73Q32.76 0 28.98 0L28.98 0zM30.87-4.59L30.87-4.59L30.87-4.59Q32.67-4.59 34.96-6.43L34.96-6.43L34.96-9.45L34.96-9.45Q32.58-9.99 31.09-9.99L31.09-9.99L31.09-9.99Q28.26-9.99 28.26-7.47L28.26-7.47L28.26-7.47Q28.26-6.17 28.98-5.38L28.98-5.38L28.98-5.38Q29.70-4.59 30.87-4.59" fill="#001f2d" stroke="none" stroke-width="none" transform="translate(-129.4416732788086,11.548645558076744)" style="fill: rgb(0, 31, 45);"></path></g><g class="path" style="transform-origin: -75.7584px 0.291664px 0px; animation: 1s linear -0.543529s infinite normal forwards running fade-98d7e520-4929-4ad9-8e8b-27939abc6424; opacity: 1;"><path d="M63.85-2.97L58.86 0.45L53.50-7.51L47.97 0.45L43.51-2.02L50.58-11.16L43.87-19.44L48.87-22.86L53.77-15.25L59.08-22.95L63.45-20.25L56.74-11.52L63.85-2.97" fill="#001f2d" stroke="none" stroke-width="none" transform="translate(-129.4416732788086,11.548645558076744)" style="fill: rgb(0, 143, 212);"></path></g><g class="path" style="transform-origin: -59.5833px 0.0916672px 0px; animation: 1s linear -0.504706s infinite normal forwards running fade-98d7e520-4929-4ad9-8e8b-27939abc6424; opacity: 1;"><path d="M66.87-21.78L72.90-22.90L72.36-11.70L72.85-1.13L66.82 0L67.36-10.93L66.87-21.78" fill="#001f2d" stroke="none" stroke-width="none" transform="translate(-129.4416732788086,11.548645558076744)" style="fill: rgb(0, 31, 45);"></path></g><g class="path" style="transform-origin: -59.375px -18.1583px 0px; animation: 1s linear -0.465882s infinite normal forwards running fade-98d7e520-4929-4ad9-8e8b-27939abc6424; opacity: 1;"><path d="M66.55-29.50L66.55-29.50L66.55-29.50Q66.55-31.00 67.72-32.20L67.72-32.20L67.72-32.20Q68.89-33.39 70.42-33.39L70.42-33.39L70.42-33.39Q71.95-33.39 72.76-32.56L72.76-32.56L72.76-32.56Q73.57-31.72 73.57-30.06L73.57-30.06L73.57-30.06Q73.57-28.39 72.43-27.20L72.43-27.20L72.43-27.20Q71.28-26.01 69.77-26.01L69.77-26.01L69.77-26.01Q68.26-26.01 67.41-27L67.41-27L67.41-27Q66.55-27.99 66.55-29.50" fill="#001f2d" stroke="none" stroke-width="none" transform="translate(-129.4416732788086,11.548645558076744)" style="fill: rgb(0, 143, 212);"></path></g><g class="path" style="transform-origin: -33.8px -4.00833px 0px; animation: 1s linear -0.427059s infinite normal forwards running fade-98d7e520-4929-4ad9-8e8b-27939abc6424; opacity: 1;"><path d="M93.33-13.95L95.49-5.63L96.03-5.63L98.28-13.37L103.00-31.32L108.45-30.51L103.09-12.64L99.58-0.36L91.26 0.22L88.06-11.79L82.84-30.20L89.23-31.32L93.33-13.95" fill="#001f2d" stroke="none" stroke-width="none" transform="translate(-129.4416732788086,11.548645558076744)" style="fill: rgb(0, 31, 45);"></path></g><g class="path" style="transform-origin: -14.7167px 0.0916672px 0px; animation: 1s linear -0.388235s infinite normal forwards running fade-98d7e520-4929-4ad9-8e8b-27939abc6424; opacity: 1;"><path d="M111.73-21.78L117.76-22.90L117.22-11.70L117.72-1.13L111.69 0L112.23-10.93L111.73-21.78" fill="#001f2d" stroke="none" stroke-width="none" transform="translate(-129.4416732788086,11.548645558076744)" style="fill: rgb(0, 143, 212);"></path></g><g class="path" style="transform-origin: -14.5083px -18.1583px 0px; animation: 1s linear -0.349412s infinite normal forwards running fade-98d7e520-4929-4ad9-8e8b-27939abc6424; opacity: 1;"><path d="M111.42-29.50L111.42-29.50L111.42-29.50Q111.42-31.00 112.59-32.20L112.59-32.20L112.59-32.20Q113.76-33.39 115.29-33.39L115.29-33.39L115.29-33.39Q116.82-33.39 117.63-32.56L117.63-32.56L117.63-32.56Q118.44-31.72 118.44-30.06L118.44-30.06L118.44-30.06Q118.44-28.39 117.29-27.20L117.29-27.20L117.29-27.20Q116.14-26.01 114.64-26.01L114.64-26.01L114.64-26.01Q113.13-26.01 112.27-27L112.27-27L112.27-27Q111.42-27.99 111.42-29.50" fill="#001f2d" stroke="none" stroke-width="none" transform="translate(-129.4416732788086,11.548645558076744)" style="fill: rgb(0, 31, 45);"></path></g><g class="path" style="transform-origin: -0.783325px 0.200005px 0px; animation: 1s linear -0.310588s infinite normal forwards running fade-98d7e520-4929-4ad9-8e8b-27939abc6424; opacity: 1;"><path d="M129.51-4.18L129.51-4.18L129.51-4.18Q131.85-4.18 131.85-6.25L131.85-6.25L131.85-6.25Q131.85-6.97 130.84-7.60L130.84-7.60L130.84-7.60Q129.82-8.23 128.36-8.87L128.36-8.87L128.36-8.87Q126.90-9.49 125.44-10.28L125.44-10.28L125.44-10.28Q123.97-11.07 122.96-12.46L122.96-12.46L122.96-12.46Q121.95-13.86 121.95-15.66L121.95-15.66L121.95-15.66Q121.95-18.68 124.60-20.93L124.60-20.93L124.60-20.93Q127.26-23.18 130.72-23.18L130.72-23.18L130.72-23.18Q132.34-23.18 133.90-22.79L133.90-22.79L133.90-22.79Q135.45-22.41 136.89-21.60L136.89-21.60L133.88-16.11L133.88-16.11Q133.56-16.38 133.06-16.79L133.06-16.79L133.06-16.79Q132.57-17.19 131.20-17.84L131.20-17.84L131.20-17.84Q129.82-18.50 128.77-18.50L128.77-18.50L128.77-18.50Q127.71-18.50 127.15-18.02L127.15-18.02L127.15-18.02Q126.58-17.55 126.58-16.72L126.58-16.72L126.58-16.72Q126.58-15.88 128.14-15.05L128.14-15.05L128.14-15.05Q129.69-14.22 131.53-13.52L131.53-13.52L131.53-13.52Q133.38-12.82 134.93-11.23L134.93-11.23L134.93-11.23Q136.48-9.63 136.48-7.42L136.48-7.42L136.48-7.42Q136.48-4.27 133.90-1.89L133.90-1.89L133.90-1.89Q131.31 0.49 127.93 0.49L127.93 0.49L127.93 0.49Q125.77 0.49 123.91-0.45L123.91-0.45L123.91-0.45Q122.04-1.40 121.23-2.34L121.23-2.34L120.42-3.28L123.97-7.42L123.97-7.42Q124.24-7.06 124.74-6.52L124.74-6.52L124.74-6.52Q125.23-5.98 126.70-5.08L126.70-5.08L126.70-5.08Q128.16-4.18 129.51-4.18" fill="#001f2d" stroke="none" stroke-width="none" transform="translate(-129.4416732788086,11.548645558076744)" style="fill: rgb(0, 143, 212);"></path></g><g class="path" style="transform-origin: 20.3167px 0.166664px 0px; animation: 1s linear -0.271765s infinite normal forwards running fade-98d7e520-4929-4ad9-8e8b-27939abc6424; opacity: 1;"><path d="M145.84 0L145.84 0L145.84 0Q143.41 0 141.91-1.60L141.91-1.60L141.91-1.60Q140.40-3.19 140.40-5.80L140.40-5.80L140.67-10.98L140.17-21.78L146.20-22.90L145.62-9.22L145.62-9.22Q145.62-7.29 146.32-6.39L146.32-6.39L146.32-6.39Q147.01-5.49 148.54-5.49L148.54-5.49L148.54-5.49Q150.07-5.49 152.77-7.02L152.77-7.02L152.77-9.72L152.28-21.55L158.35-22.68L157.81-11.43L157.86-7.74L157.86-7.74Q157.86-4.86 159.34-1.93L159.34-1.93L154.66 0.14L154.66 0.14Q153.18-2.79 152.86-4.54L152.86-4.54L152.86-4.54Q148.81 0 145.84 0" fill="#001f2d" stroke="none" stroke-width="none" transform="translate(-129.4416732788086,11.548645558076744)" style="fill: rgb(0, 31, 45);"></path></g><g class="path" style="transform-origin: 41.775px 0.0250015px 0px; animation: 1s linear -0.232941s infinite normal forwards running fade-98d7e520-4929-4ad9-8e8b-27939abc6424; opacity: 1;"><path d="M167.89 0L167.89 0Q165.24 0 163.55-1.69L163.55-1.69L163.55-1.69Q161.86-3.38 161.86-6.23L161.86-6.23L161.86-6.23Q161.86-9.09 164.47-11.18L164.47-11.18L164.47-11.18Q167.08-13.28 170.82-13.28L170.82-13.28L173.88-13.28L173.88-14.04L173.88-14.04Q173.88-16.25 172.98-17.05L172.98-17.05L172.98-17.05Q172.08-17.86 169.60-17.86L169.60-17.86L169.60-17.86Q168.57-17.86 167.15-17.44L167.15-17.44L167.15-17.44Q165.73-17.01 163.98-16.11L163.98-16.11L162.67-19.66L162.67-19.66Q164.61-21.02 167.38-22.09L167.38-22.09L167.38-22.09Q170.14-23.18 171.94-23.18L171.94-23.18L171.94-23.18Q179.01-23.18 179.01-16.34L179.01-16.34L179.01-7.51L179.01-7.51Q179.01-5.00 180.58-1.89L180.58-1.89L175.81 0.14L175.81 0.14Q174.69-2.02 174.15-3.73L174.15-3.73L174.15-3.73Q171.67 0 167.89 0L167.89 0zM169.78-4.59L169.78-4.59L169.78-4.59Q171.58-4.59 173.88-6.43L173.88-6.43L173.88-9.45L173.88-9.45Q171.49-9.99 170.01-9.99L170.01-9.99L170.01-9.99Q167.17-9.99 167.17-7.47L167.17-7.47L167.17-7.47Q167.17-6.17 167.89-5.38L167.89-5.38L167.89-5.38Q168.61-4.59 169.78-4.59" fill="#001f2d" stroke="none" stroke-width="none" transform="translate(-129.4416732788086,11.548645558076744)" style="fill: rgb(0, 143, 212);"></path></g><g class="path" style="transform-origin: 58.1417px -5.875px 0px; animation: 1s linear -0.194118s infinite normal forwards running fade-98d7e520-4929-4ad9-8e8b-27939abc6424; opacity: 1;"><path d="M184.50-33.70L190.66-34.83L190.08-11.70L190.57-1.13L184.50 0L185.04-10.93L184.50-33.70" fill="#001f2d" stroke="none" stroke-width="none" transform="translate(-129.4416732788086,11.548645558076744)" style="fill: rgb(0, 31, 45);"></path></g><g class="path" style="transform-origin: 69.4333px 0.0916672px 0px; animation: 1s linear -0.155294s infinite normal forwards running fade-98d7e520-4929-4ad9-8e8b-27939abc6424; opacity: 1;"><path d="M195.88-21.78L201.91-22.90L201.37-11.70L201.87-1.13L195.84 0L196.38-10.93L195.88-21.78" fill="#001f2d" stroke="none" stroke-width="none" transform="translate(-129.4416732788086,11.548645558076744)" style="fill: rgb(0, 143, 212);"></path></g><g class="path" style="transform-origin: 69.6417px -18.1583px 0px; animation: 1s linear -0.116471s infinite normal forwards running fade-98d7e520-4929-4ad9-8e8b-27939abc6424; opacity: 1;"><path d="M195.57-29.50L195.57-29.50L195.57-29.50Q195.57-31.00 196.74-32.20L196.74-32.20L196.74-32.20Q197.91-33.39 199.44-33.39L199.44-33.39L199.44-33.39Q200.97-33.39 201.78-32.56L201.78-32.56L201.78-32.56Q202.59-31.72 202.59-30.06L202.59-30.06L202.59-30.06Q202.59-28.39 201.44-27.20L201.44-27.20L201.44-27.20Q200.29-26.01 198.79-26.01L198.79-26.01L198.79-26.01Q197.28-26.01 196.42-27L196.42-27L196.42-27Q195.57-27.99 195.57-29.50" fill="#001f2d" stroke="none" stroke-width="none" transform="translate(-129.4416732788086,11.548645558076744)" style="fill: rgb(0, 31, 45);"></path></g><g class="path" style="transform-origin: 84.4834px 0.158333px 0px; animation: 1s linear -0.0776471s infinite normal forwards running fade-98d7e520-4929-4ad9-8e8b-27939abc6424; opacity: 1;"><path d="M205.33 0.27L206.10-4.46L215.59-18L205.65-17.32L206.68-22.99L214.38-22.50L221.89-23.04L221.13-18.36L211.59-4.77L222.52-5.40L221.53 0.27L213.88-0.22L205.33 0.27" fill="#001f2d" stroke="none" stroke-width="none" transform="translate(-129.4416732788086,11.548645558076744)" style="fill: rgb(0, 143, 212);"></path></g><g class="path" style="transform-origin: 103.542px 0.200005px 0px; animation: 1s linear -0.0388235s infinite normal forwards running fade-98d7e520-4929-4ad9-8e8b-27939abc6424; opacity: 1;"><path d="M233.73-4.59L233.73-4.59L233.73-4.59Q235.03-4.59 236.47-5.26L236.47-5.26L236.47-5.26Q237.91-5.94 238.72-6.61L238.72-6.61L239.53-7.29L241.60-4.77L241.60-4.77Q241.15-4.00 240.21-3.01L240.21-3.01L240.21-3.01Q239.26-2.02 238.30-1.33L238.30-1.33L238.30-1.33Q237.33-0.63 235.73-0.07L235.73-0.07L235.73-0.07Q234.13 0.49 232.42 0.49L232.42 0.49L232.42 0.49Q228.78 0.49 226.48-2.27L226.48-2.27L226.48-2.27Q224.19-5.04 224.19-9.40L224.19-9.40L224.19-9.40Q224.19-14.89 227.38-19.04L227.38-19.04L227.38-19.04Q230.58-23.18 234.85-23.18L234.85-23.18L234.85-23.18Q238.14-23.18 239.96-21.33L239.96-21.33L239.96-21.33Q241.78-19.48 241.78-16.16L241.78-16.16L241.78-16.16Q241.78-14.17 241.11-11.65L241.11-11.65L240.21-10.71L228.96-9.67L228.96-9.67Q229.72-4.59 233.73-4.59zM233.73-18.54L233.73-18.54L233.73-18.54Q231.75-18.54 230.40-16.94L230.40-16.94L230.40-16.94Q229.05-15.34 228.82-12.87L228.82-12.87L236.47-13.81L236.47-13.81Q236.61-14.85 236.61-15.52L236.61-15.52L236.61-15.52Q236.61-18.54 233.73-18.54" fill="#001f2d" stroke="none" stroke-width="none" transform="translate(-129.4416732788086,11.548645558076744)" style="fill: rgb(0, 31, 45);"></path></g><g class="path" style="transform-origin: 122.592px 0.0916672px 0px; animation: 1s linear 0s infinite normal forwards running fade-98d7e520-4929-4ad9-8e8b-27939abc6424; opacity: 1;"><path d="M245.20-21.73L245.20-21.73L250.65-22.90L250.65-22.90Q251.05-19.44 251.19-16.34L251.19-16.34L251.19-16.34Q255.28-22.68 258.88-22.68L258.88-22.68L258.39-15.66L258.39-15.66Q255.78-15.66 254.27-15.19L254.27-15.19L254.27-15.19Q252.76-14.71 251.19-13.32L251.19-13.32L251.19-11.70L251.68-1.13L245.65 0L246.19-10.93L246.19-10.93Q246.01-16.96 245.20-21.73" fill="#001f2d" stroke="none" stroke-width="none" transform="translate(-129.4416732788086,11.548645558076744)" style="fill: rgb(0, 143, 212);"></path></g></g>
</g>
<style id="fade-98d7e520-4929-4ad9-8e8b-27939abc6424" data-anikit="">@keyframes fade-98d7e520-4929-4ad9-8e8b-27939abc6424
{
  0% {
    animation-timing-function: cubic-bezier(0.2057,0.573,0.3723,0.9184);
    opacity: 1;
  }
  100% {
    opacity: 0;
  }
}</style><style id="fade-98d7e520-4929-4ad9-8e8b-27939abc6424" data-anikit="">@keyframes fade-98d7e520-4929-4ad9-8e8b-27939abc6424
{
  0% {
    animation-timing-function: cubic-bezier(0.2057,0.573,0.3723,0.9184);
    opacity: 1;
  }
  100% {
    opacity: 0;
  }
}</style></svg>